<?xml version="1.0" encoding="utf-8"?>
<!-- Generator: Adobe Illustrator 24.0.2, SVG Export Plug-In . SVG Version: 6.00 Build 0)  -->
<svg version="1.1" id="Layer_1" xmlns="http://www.w3.org/2000/svg" xmlns:xlink="http://www.w3.org/1999/xlink" x="0px" y="0px"
	 viewBox="0 0 200 200" style="enable-background:new 0 0 200 200;" xml:space="preserve">
<g>
	<path d="M32.2,22.6C52.6,21.1,82,55.1,82,55.1l19.2-1.5V-0.1H72.4C32.2-0.1-0.2,33.6,0,75l0.1,24.5h35.5l3.9-17.3
		C20.4,30.2,32.2,22.6,32.2,22.6z"/>
	<path d="M63.3,61l3.9,0.5C67.3,61.6,56.5,37.3,39,35c0,0-3.4,17.8,10.2,38.5l2.2-5.4l2.8,0.5h4.5l-2.8-6.5l5.1,2.2L63.3,61z"/>
	<path d="M163.6,99.2c12.1,10.4,9.9,16.1,9.9,15.8l-1.5-1.1c-4.5-2.3-2.5,2.6-2.5,2.6c5.1,5.3,2.8,8.2,2.8,8.2l-3.9-1.5l2.8,7.6
		l-1.9-0.8l-3.4-2.2l-0.9,4l-2.5-2.2c3.1,13.9-1.9,16.6-1.9,16.6c-1.8-13.3-5.7-8.2-5.7-8.2c2.8,22-4.2,23.8-4.2,23.8
		c-0.4-17.8-7-7.6-10.9-6.5c-3.9,1.1-18.6,22.7-18.6,22.7c-6.4,12.8-19.5,15.8-19.5,15.8v6h26.1c40,0,72.4-33.4,72.4-74.7v-26H163.6
		z"/>
	<polygon points="109.9,125.5 101.2,125.5 101.2,137.9 	"/>
	<path d="M105.1,169.6c6.7,6.8,9.9-14.7,9.9-14.7c1.5-7.6,10.2-8.7,10.2-8.7l0.1-1.9c-6.7-1.9-12.9,8.7-12.9,8.7
		c-3.5,20-7.7,9.4-11,8.2c-0.1,0-0.1,0-0.1,0.1l0,4l-0.8,0.6c0,0-0.1,0.1-0.3,0.2c-0.8,0.7-1.5,1.5-2,2.4l-0.9,1.6
		c-0.1,0.1-0.7,1-0.8,1c-6.7,2.8-13.2-10.9-13.2-10.9c-4.5-15.8-10.2-10.8-10.2-10.8l-0.6-2.2c7.9-3.9,11.2,4.8,14.7,12.4
		c3.3,7.6,8.4,5.4,8.4,5.4c2.7-1.4,3.4-3.3,5.1-3.7c0.3-0.1,0.5-0.1,0.6-0.2l0-22.4l-9.1-13.3h9v-26h-16c0.8-0.6,1.4-1.3,1.8-2.2
		c1.3-3.7-3.4-8.4-10.3-10.5c-6.9-2.2-13.5-1.1-14.8,2.6c-1.1,3.5,2.9,7.7,9,10.1H35.7c-8.5,2.2-16.9,21.2-16.6,20.9
		c9.6-10.8,10.2-3.7,10.2-3.7c-5.7,4.5-7.3,15.8-7.3,15.8l9-7.6L28,132l2.8-0.5l1.6,3.2l3.9-5.4c-2.7,5.4-1.6,16.2-1.6,16.2
		c3.9-9.7,6.7-5.4,6.7-5.4c-1.8,26.5,9,28.6,9,28.6c1.8-9.1,11.8-34.6,24.9-3.7c12.9,30.8,25.9,28.2,25.9,28.2v-27.8
		c0,0,0.2,0.1,0.4,0.2c0.5,0.3,1,0.8,1.3,1.3L105.1,169.6z"/>
	<path d="M115.1,99.5c-1.2-0.6-2.1-1.5-2.5-2.6c-1.2-3.6,3.4-8.4,10.3-10.5c6.9-2.2,13.5-1.1,14.8,2.6c1.2,3.7-3.4,8.3-10.2,10.5
		l35.9-0.1L161.6,85c24.6-36.7,15.6-65.6,15.6-65.6c-29.7,1.4-53.7,36-53.7,36l-22.3-1.9v45.9L115.1,99.5z M166.7,33
		c0,0,3.4,17.8-10.2,38.5l-2.2-5.4l-2.8,0.5h-4.5l2.8-6.5l-5.1,2.2l-2.2-3.2l-3.9,0.5C138.5,59.5,149.2,35.2,166.7,33z"/>
</g>
</svg>
