<?xml version="1.0" encoding="utf-8"?>
<!-- Generator: Adobe Illustrator 24.0.2, SVG Export Plug-In . SVG Version: 6.00 Build 0)  -->
<svg version="1.1" id="Layer_1" xmlns="http://www.w3.org/2000/svg" xmlns:xlink="http://www.w3.org/1999/xlink" x="0px" y="0px"
	 viewBox="0 0 200 200" style="enable-background:new 0 0 200 200;" xml:space="preserve">
<style type="text/css">
	.st0{fill:#08365E;}
</style>
<g>
	<path class="st0" d="M21.4,138.5h-4.3v-17.2c-0.1,0-0.1-0.1-0.2-0.1l-0.2-0.1c-0.1-0.1-0.2-0.1-0.4-0.2l-0.2-0.1
		c-0.1-0.1-0.2-0.1-0.4-0.2l-0.2-0.1c-0.1-0.1-0.2-0.1-0.4-0.2l-0.1-0.1c-0.2-0.1-0.3-0.2-0.4-0.3l-0.1,0c-0.2-0.1-0.3-0.2-0.5-0.4
		l-0.1-0.1c-0.1-0.1-0.2-0.2-0.3-0.3l-0.2-0.2c-0.1-0.1-0.2-0.2-0.3-0.3l-0.2-0.2c-0.1-0.1-0.2-0.2-0.3-0.3l-0.1-0.2
		c-0.1-0.2-0.3-0.3-0.4-0.5c-2.2-2.9-3-6.6-2.2-10.2c0.3-1.3-0.3-2.5-1.4-3.1c-2.1-1-3.7-2.7-4.9-4.7v52.8h17.6V138.5z"/>
	<path class="st0" d="M4.7,82.6c-0.3-0.4-0.6-0.9-0.9-1.3v6.1c0.3-0.5,0.5-0.9,0.9-1.3C5.5,85,5.5,83.6,4.7,82.6z"/>
	<path class="st0" d="M186.7,41.5L151.1,4.1l-0.2,0l-4-4.1H3.8v69c1.1-2,2.8-3.7,4.9-4.7c1.1-0.6,1.7-1.8,1.4-3.1
		c0-0.2-0.1-0.5-0.1-0.7c-0.1-0.7-0.2-1.4-0.2-2c0-2.7,0.9-5.3,2.5-7.5c1.3-1.7,3-3,4.8-3.7V14h120.6v51.4h48.9v73.1h-104v14H200
		V55.3L186.7,41.5z M151.1,51.4V23.9l26.2,27.5H151.1z"/>
</g>
<path class="st0" d="M171.7,124h-65.7c-2.8,0-5-2.2-5-5s2.2-5,5-5h65.7c2.8,0,5,2.2,5,5S174.4,124,171.7,124z"/>
<path class="st0" d="M159.5,96.4H94.9c-2.8,0-5-2.2-5-5s2.2-5,5-5h64.5c2.8,0,5,2.2,5,5S162.2,96.4,159.5,96.4z"/>
<path class="st0" d="M159.5,79.4H94.9c-2.8,0-5-2.2-5-5s2.2-5,5-5h64.5c2.8,0,5,2.2,5,5S162.2,79.4,159.5,79.4z"/>
<path class="st0" d="M141.6,60.1H91.1c-2.2,0-3.9-2.2-3.9-5s1.8-5,3.9-5h50.5c2.2,0,3.9,2.2,3.9,5S143.7,60.1,141.6,60.1z"/>
<g>
	<path class="st0" d="M104.1,92c0-0.4-0.1-0.7-0.1-1c-0.2-1.2-0.6-2.4-1.1-3.5c-0.4-1-1-2-1.7-2.8c-0.1-0.1-0.1-0.3,0-0.5
		c0,0,0,0,0,0c0.6-0.9,1.2-1.8,1.6-2.7c0.1-0.1,0.1-0.3,0.2-0.4c0-0.1,0.1-0.2,0.1-0.3c0.7-1.7,1-3.6,1-5.4c0-1.1-0.1-2.1-0.3-3.2
		c-0.6-2.9-2-5.4-4.1-7.4c-1-0.9-2.1-1.8-3.3-2.4c-0.1,0-0.1-0.1-0.2-0.2c0-0.1,0-0.2,0-0.3c0.3-1.6,0.4-3.2,0.3-4.7
		c0,0,0-0.1,0-0.1c0-0.1,0-0.3-0.1-0.4c0-0.1,0-0.3-0.1-0.4c0-0.1,0-0.1,0-0.2c-0.4-2.3-1.3-4.5-2.8-6.4c-0.2-0.3-0.4-0.5-0.6-0.7
		c-2.2-2.6-5.2-4.2-8.5-4.6c-0.5-0.1-1-0.1-1.6-0.1c-0.2,0-0.3-0.1-0.4-0.3c-0.1-0.5-0.3-1.1-0.4-1.6c-1.2-3.6-3.7-6.5-7-8.2
		c-3.8-1.9-8.1-1.9-11.9,0c-0.2,0.1-0.4,0-0.5-0.1c-0.3-0.4-0.7-0.8-1-1.2c-2.6-2.7-6-4.2-9.6-4.2c0,0,0,0,0,0h0c0,0,0,0,0,0
		c-4.2,0-8.1,2-10.7,5.4c-0.1,0.2-0.3,0.2-0.5,0.1c-3.8-1.9-8.1-1.9-11.9,0c-3.8,1.9-6.5,5.4-7.4,9.7c0,0.2-0.2,0.3-0.4,0.3
		c-4.2,0-8.1,2-10.7,5.4c-2,2.6-3,5.7-3,8.9c0,0.8,0.1,1.6,0.2,2.4c0,0.3,0.1,0.5,0.2,0.8c0,0.2,0,0.4-0.2,0.5
		c-3,1.5-5.4,4.2-6.7,7.4c0,0,0,0,0,0C1,69.8,0.9,70,0.8,70.3c0,0,0,0.1,0,0.1c0,0.1-0.1,0.2-0.1,0.4c-0.1,0.4-0.2,0.8-0.3,1.2
		C0.1,73,0,74.1,0,75.1c0,0,0,0.1,0,0.1c0,0.4,0,0.7,0.1,1.1c0,0.6,0.1,1.2,0.3,1.8c0,0.1,0,0.1,0,0.2c0,0,0,0,0,0
		c0.4,2.1,1.3,4,2.6,5.7c0.1,0.2,0.1,0.4,0,0.5C0.4,88-0.6,92.4,0.3,96.7s3.6,7.8,7.4,9.7c0.2,0.1,0.3,0.3,0.2,0.5
		c-0.9,4.3,0,8.7,2.7,12.1c0.2,0.2,0.3,0.4,0.5,0.6c0.1,0.1,0.1,0.1,0.2,0.2c0.1,0.1,0.2,0.3,0.3,0.4c0.1,0.1,0.1,0.1,0.2,0.2
		c0.1,0.1,0.2,0.2,0.3,0.3c0.1,0.1,0.1,0.1,0.2,0.2c0.1,0.1,0.2,0.2,0.4,0.3c0.1,0.1,0.1,0.1,0.2,0.2c0.2,0.2,0.4,0.3,0.6,0.4
		c0,0,0,0,0,0c0.2,0.1,0.4,0.3,0.6,0.4c0.1,0,0.1,0.1,0.2,0.1c0.1,0.1,0.3,0.2,0.4,0.3c0.1,0,0.1,0.1,0.2,0.1
		c0.1,0.1,0.3,0.2,0.4,0.2c0.1,0,0.2,0.1,0.2,0.1c0.1,0.1,0.3,0.1,0.4,0.2c0.1,0,0.1,0.1,0.2,0.1c0.2,0.1,0.4,0.2,0.6,0.3
		c0,0,0,0,0,0c0.2,0.1,0.4,0.2,0.7,0.2c0.1,0,0.1,0,0.2,0.1c0.2,0,0.3,0.1,0.5,0.1c0.1,0,0.2,0,0.3,0.1c0.1,0,0.3,0.1,0.4,0.1
		c0.1,0,0.2,0,0.3,0c0,0,0.1,0,0.1,0V200l32.9-17.7L84.9,200v-75.7c0,0,0.1,0,0.1,0c0.1,0,0.2,0,0.3,0c0.1,0,0.3-0.1,0.4-0.1
		c0.1,0,0.2,0,0.3-0.1c0.2,0,0.3-0.1,0.5-0.1c0.1,0,0.2,0,0.2-0.1c0.2-0.1,0.4-0.1,0.7-0.2c0,0,0,0,0.1,0c0.2-0.1,0.4-0.2,0.6-0.2
		c0.1,0,0.2-0.1,0.2-0.1c0.1-0.1,0.3-0.1,0.4-0.2c0.1,0,0.2-0.1,0.3-0.1c0.1-0.1,0.3-0.1,0.4-0.2c0.1,0,0.2-0.1,0.2-0.1
		c0.1-0.1,0.3-0.2,0.4-0.2c0.1,0,0.1-0.1,0.2-0.1c0.2-0.1,0.4-0.3,0.6-0.4c0,0,0.1,0,0.1-0.1c0.2-0.1,0.3-0.3,0.5-0.4
		c0.1-0.1,0.1-0.1,0.2-0.2c0.1-0.1,0.2-0.2,0.4-0.3c0.1-0.1,0.1-0.1,0.2-0.2c0.1-0.1,0.2-0.2,0.3-0.3c0.1-0.1,0.1-0.1,0.2-0.2
		c0.1-0.1,0.2-0.2,0.3-0.4c0.1-0.1,0.1-0.1,0.2-0.2c0.2-0.2,0.3-0.4,0.4-0.6c0,0,0,0,0,0c2.6-3.4,3.6-7.9,2.7-12.1
		c0-0.2,0-0.4,0.2-0.5c3.8-1.9,6.4-5.5,7.4-9.7c0.2-0.8,0.3-1.6,0.3-2.4c0-0.3,0-0.5,0-0.8c0,0,0,0,0,0
		C104.1,93,104.1,92.5,104.1,92z M71.6,177.1l-19.5-10.5l-19.5,10.5v-41.4c2.8,0.5,5.7,0.2,8.4-1.2c0.2-0.1,0.4,0,0.5,0.1
		c2.6,3.4,6.5,5.4,10.7,5.4c4.2,0,8.1-2,10.7-5.4c0.1-0.2,0.3-0.2,0.5-0.1c2.7,1.3,5.6,1.7,8.4,1.2V177.1z M52.1,120.9
		c-20.2,0-36.6-16.4-36.6-36.6c0-20.2,16.4-36.6,36.6-36.6c20.2,0,36.6,16.4,36.6,36.6C88.7,104.5,72.3,120.9,52.1,120.9z"/>
	<path class="st0" d="M73.9,79.2c0-2.9-2.5-5.5-5.6-5.5h-9.6c0.7-2.7,3.1-4.9,3.1-8.9c0-6.9-4.5-7.7-6.8-7.7c-1.9,0-2.8,3.7-3.2,5.4
		c-0.5,2-1,4.2-2.4,5.5c-3.1,3.1-4.7,7-8.4,10.7c-0.2,0.2-10.7,0.6-10.7,0.6c-1.9,0-3.4,0.8-3.4,1.8V99c0,1,1.5,1.8,3.4,1.8
		c0,0,11.3,0.1,11.5,0.1c1.5,0,3.5,0.9,5,1.5c3,1.3,6.7,3,11.3,3l0.3,0c4,0,8.8,0,10.7-2.8c0.8-1.1,1-2.5,0.6-4.2
		c1.5-1.6,2.4-4.6,1.5-7c1.7-2.2,1.8-5.3,0.9-7.5l0,0C73.1,82.7,73.9,80.9,73.9,79.2z"/>
</g>
</svg>
